<svg xmlns="http://www.w3.org/2000/svg" width="1280" height="320" viewBox="0 0 1280 320">
<defs>
<linearGradient id="bg" x1="0" y1="0" x2="1" y2="1"><stop offset="0" stop-color="#040A16"></stop><stop offset=".55" stop-color="#081426"></stop><stop offset="1" stop-color="#0B1F3D"></stop></linearGradient>
<linearGradient id="cy" x1="0" y1="0" x2="1" y2="0"><stop offset="0" stop-color="#00D9FF"></stop><stop offset="1" stop-color="#3B82F6"></stop></linearGradient>
<linearGradient id="shimmer" x1="0" y1="0" x2="1" y2="0">
  <stop offset="0" stop-color="#00D9FF"></stop><stop offset=".5" stop-color="#BFF3FF"></stop><stop offset="1" stop-color="#3B82F6"></stop>
  
</linearGradient>
<radialGradient id="glow" cx=".5" cy=".5" r=".5"><stop offset="0" stop-color="#00D9FF" stop-opacity=".9"></stop><stop offset="1" stop-color="#00D9FF" stop-opacity="0"></stop></radialGradient>
<filter id="soft" x="-60%" y="-60%" width="220%" height="220%"><feGaussianBlur stdDeviation="3"></feGaussianBlur></filter>

</defs>
<rect width="1280" height="320" fill="url(#bg)"></rect>
<g opacity=".08" stroke="#00D9FF" stroke-width="1">
<line x1="40" y1="0" x2="40" y2="320"></line><line x1="140" y1="0" x2="140" y2="320"></line><line x1="240" y1="0" x2="240" y2="320"></line><line x1="340" y1="0" x2="340" y2="320"></line><line x1="440" y1="0" x2="440" y2="320"></line><line x1="540" y1="0" x2="540" y2="320"></line><line x1="640" y1="0" x2="640" y2="320"></line><line x1="740" y1="0" x2="740" y2="320"></line><line x1="840" y1="0" x2="840" y2="320"></line><line x1="940" y1="0" x2="940" y2="320"></line><line x1="1040" y1="0" x2="1040" y2="320"></line><line x1="1140" y1="0" x2="1140" y2="320"></line><line x1="1240" y1="0" x2="1240" y2="320"></line>
<line x1="0" y1="35" x2="1280" y2="35"></line><line x1="0" y1="105" x2="1280" y2="105"></line><line x1="0" y1="175" x2="1280" y2="175"></line><line x1="0" y1="245" x2="1280" y2="245"></line><line x1="0" y1="315" x2="1280" y2="315"></line>
</g>
<rect class="scan" width="1280" height="2" fill="#00D9FF" opacity=".12"></rect>

<g transform="translate(870,36)">
  <path id="e1" class="link" d="M50,44 C110,44 120,96 190,96"></path>
  <path id="e2" class="link" d="M50,124 C110,124 120,96 190,96"></path>
  <path id="e3" class="link" d="M50,204 C110,204 120,96 190,96"></path>
  <path id="e4" class="link" d="M50,44 C110,44 120,176 190,176"></path>
  <path id="e5" class="link" d="M50,124 C110,124 120,176 190,176"></path>
  <path id="e6" class="link" d="M50,204 C110,204 120,176 190,176"></path>
  <path id="e7" class="link" d="M190,96 C250,96 260,136 330,136"></path>
  <path id="e8" class="link" d="M190,176 C250,176 260,136 330,136"></path>
  <circle r="3.5" fill="#BFF3FF"></circle>
  <circle r="3.5" fill="#BFF3FF"></circle>
  <circle r="3.5" fill="#BFF3FF"></circle>
  <circle r="3.5" fill="#BFF3FF"></circle>
  <circle r="3.5" fill="#BFF3FF"></circle>
  <circle class="b1" cx="50" cy="44" r="18" fill="url(#glow)" filter="url(#soft)"></circle>
  <circle class="b2" cx="50" cy="124" r="18" fill="url(#glow)" filter="url(#soft)"></circle>
  <circle class="b3" cx="50" cy="204" r="18" fill="url(#glow)" filter="url(#soft)"></circle>
  <circle class="node" cx="50" cy="44" r="8"></circle><circle class="node" cx="50" cy="124" r="8"></circle><circle class="node" cx="50" cy="204" r="8"></circle>
  <circle class="b2" cx="190" cy="96" r="22" fill="url(#glow)" filter="url(#soft)"></circle>
  <circle class="b3" cx="190" cy="176" r="22" fill="url(#glow)" filter="url(#soft)"></circle>
  <circle class="node" cx="190" cy="96" r="10"></circle><circle class="node" cx="190" cy="176" r="10"></circle>
  <circle class="b1" cx="330" cy="136" r="28" fill="url(#glow)" filter="url(#soft)"></circle>
  <circle class="node" cx="330" cy="136" r="13"></circle>
  <circle cx="330" cy="136" r="5" fill="#00D9FF"></circle>
</g>
<g class="fu1"><text x="72" y="140" font-size="52" font-weight="700" fill="#F1F7FF">Manikandan J</text></g>
<rect class="rule" x="74" y="162" width="420" height="3" fill="url(#shimmer)"></rect>
<g class="fu2"><text x="72" y="205" font-size="24" fill="#8FD9EE">Agentic AI · Generative AI · Intelligent Automation</text></g>
<g class="fu3"><text x="72" y="240" font-size="18" fill="#5B7A99">Principal Architect  |  12+ Years Enterprise IT</text></g>
</svg>