<svg xmlns="http://www.w3.org/2000/svg" width="1280" height="320" viewBox="0 0 1280 320">
<defs>
<linearGradient id="bg" x1="0" y1="0" x2="1" y2="1"><stop offset="0" stop-color="#050B18"></stop><stop offset="1" stop-color="#0B1B33"></stop></linearGradient>
<linearGradient id="cy" x1="0" y1="0" x2="1" y2="0"><stop offset="0" stop-color="#00D9FF"></stop><stop offset="1" stop-color="#3B82F6"></stop></linearGradient>

</defs>
<rect width="1280" height="320" fill="url(#bg)"></rect>
<g opacity=".12" stroke="#00D9FF" stroke-width="1">
<line x1="40" y1="0" x2="40" y2="320"></line><line x1="140" y1="0" x2="140" y2="320"></line><line x1="240" y1="0" x2="240" y2="320"></line><line x1="340" y1="0" x2="340" y2="320"></line><line x1="440" y1="0" x2="440" y2="320"></line><line x1="540" y1="0" x2="540" y2="320"></line><line x1="640" y1="0" x2="640" y2="320"></line><line x1="740" y1="0" x2="740" y2="320"></line><line x1="840" y1="0" x2="840" y2="320"></line><line x1="940" y1="0" x2="940" y2="320"></line><line x1="1040" y1="0" x2="1040" y2="320"></line><line x1="1140" y1="0" x2="1140" y2="320"></line><line x1="1240" y1="0" x2="1240" y2="320"></line>
<line x1="0" y1="35" x2="1280" y2="35"></line><line x1="0" y1="105" x2="1280" y2="105"></line><line x1="0" y1="175" x2="1280" y2="175"></line><line x1="0" y1="245" x2="1280" y2="245"></line><line x1="0" y1="315" x2="1280" y2="315"></line>
</g>

<g transform="translate(880,40)">
<line class="l" x1="40" y1="40" x2="180" y2="90"></line><line class="l" x1="40" y1="120" x2="180" y2="90"></line><line class="l" x1="40" y1="200" x2="180" y2="90"></line>
<line class="l" x1="40" y1="40" x2="180" y2="170"></line><line class="l" x1="40" y1="120" x2="180" y2="170"></line><line class="l" x1="40" y1="200" x2="180" y2="170"></line>
<line class="l" x1="180" y1="90" x2="320" y2="130"></line><line class="l" x1="180" y1="170" x2="320" y2="130"></line>
<path class="flow" d="M40,120 L180,90 L320,130"></path>
<circle class="n p1" cx="40" cy="40" r="7"></circle><circle class="n p2" cx="40" cy="120" r="7"></circle><circle class="n p3" cx="40" cy="200" r="7"></circle>
<circle class="n p2" cx="180" cy="90" r="9"></circle><circle class="n p3" cx="180" cy="170" r="9"></circle>
<circle class="n p1" cx="320" cy="130" r="11"></circle>
</g>
<text x="72" y="140" font-size="52" font-weight="700" fill="#F1F7FF">Manikandan J</text>
<rect x="74" y="162" width="420" height="3" fill="url(#cy)"></rect>
<text x="72" y="205" font-size="24" fill="#8FD9EE">Agentic AI · Generative AI · Intelligent Automation</text>
<text x="72" y="240" font-size="18" fill="#5B7A99">UiPath Solution Architect  |  12+ Years Enterprise IT</text>
</svg>